<svg id="Solid" viewBox="0 0 128 128" xmlns="http://www.w3.org/2000/svg">
    <path d="m25.49 23.61c7.49 0 14.37 3.3 20.09 7.95a126.443 126.443 0 0 1 10.25-8.62 13.5 13.5 0 0 1 16.28 0 126.66 126.66 0 0 1 10.27 8.65c.57-.46 1.15-.91 1.75-1.35 5.36-3.94 11.63-6.63 18.38-6.63h.14q.99 0 1.92.09a8.418 8.418 0 0 0 -5.33-4.85c-2.63-.93-5.09-.95-5.15-2.45-.2-4.81-3.26-11.18-5.97-9.56-4.09 2.44-13.18.4-20.04 7.11a5.869 5.869 0 0 1 -8.16 0c-6.86-6.71-15.95-4.67-20.04-7.11-2.71-1.62-5.77 4.75-5.97 9.56-.11 2.66-7.7.66-10.48 7.31a17.126 17.126 0 0 1 1.92-.1z" />
    <path d="m25.49 23.61c7.49 0 14.37 3.3 20.09 7.95a126.443 126.443 0 0 1 10.25-8.62 13.5 13.5 0 0 1 16.28 0 126.66 126.66 0 0 1 10.27 8.65c.57-.46 1.15-.91 1.75-1.35 5.36-3.94 11.63-6.63 18.38-6.63h.14q.99 0 1.92.09a8.418 8.418 0 0 0 -5.33-4.85c-2.63-.93-5.09-.95-5.15-2.45-.2-4.81-3.26-11.18-5.97-9.56-4.09 2.44-13.18.4-20.04 7.11a5.869 5.869 0 0 1 -8.16 0c-6.86-6.71-15.95-4.67-20.04-7.11-2.71-1.62-5.77 4.75-5.97 9.56-.11 2.66-7.7.66-10.48 7.31a17.126 17.126 0 0 1 1.92-.1z" />
    <path d="m47.85 33.54a124.053 124.053 0 0 1 9.79-8.21 10.485 10.485 0 0 1 12.65 0 124.827 124.827 0 0 1 9.82 8.24 53.75 53.75 0 0 0 -7.15 8.15 14.364 14.364 0 0 0 -17.94-.03 52.822 52.822 0 0 0 -7.17-8.15z" />
    <path d="m63.97 41.56a11.435 11.435 0 1 0 11.43 11.44 11.45 11.45 0 0 0 -11.43-11.44zm0 16.415a4.98 4.98 0 1 1 4.977-4.975 4.979 4.979 0 0 1 -4.98 4.975z" />
    <circle cx="87.33" cy="64.543" r="2.978" />
    <circle cx="40.67" cy="64.543" r="2.978" />
    <path d="m67.363 75.792a1.5 1.5 0 0 1 -1.411-2.01 4.5 4.5 0 0 1 5.028-2.711 2.431 2.431 0 0 1 2.281 2.263 1.5 1.5 0 0 1 -2.835.685 2.014 2.014 0 0 0 -.971.124 1.081 1.081 0 0 0 -.681.658 1.5 1.5 0 0 1 -1.411.991z" />
    <path d="m60.637 75.792a1.5 1.5 0 0 1 -1.411-.991 1.081 1.081 0 0 0 -.681-.658 2 2 0 0 0 -.971-.124 1.5 1.5 0 0 1 -2.835-.685 2.431 2.431 0 0 1 2.281-2.263 4.509 4.509 0 0 1 5.028 2.711 1.5 1.5 0 0 1 -1.411 2.01z" />
    <path d="m113.52 56.14c7.41-12.07 5.34-27.12-7.71-29.26a26.466 26.466 0 0 0 -3.3-.27c-6.318-.138-12.54 2.8-17.95 7.11-.78.61-1.54 1.27-2.28 1.95a49.842 49.842 0 0 0 -7.14 8.2 14.409 14.409 0 0 1 -6.314 22.7 11.11 11.11 0 0 1 7.715 10.345 58.841 58.841 0 0 1 13.129 4.7 40.8 40.8 0 0 0 8.96 3.34c.9.19 1.89.35 2.92.53a57.2 57.2 0 0 1 5.628 1.135c.182-.041.359-.071.542-.115 5.95-1.42 12.3-9.16 6.44-16.99a11.951 11.951 0 0 1 -.64-13.375zm-26.19 1.435a6.968 6.968 0 1 1 -6.968 6.968 6.976 6.976 0 0 1 6.968-6.968zm15.222 16.425c-4.033 3.2-13.307 5.109-20.65-.663a13.151 13.151 0 0 0 5.428 1.173 9.968 9.968 0 1 0 0-19.935 8.8 8.8 0 0 0 -1.93.225c4.247-2.832 9.589-5.122 14.579-4.58a5.567 5.567 0 0 1 4.368 3.035c2.259 4.499 6.003 14.556-1.795 20.745z" />
    <path d="m49.53 53a14.4 14.4 0 0 1 3.3-9.18 48.9 48.9 0 0 0 -7.15-8.18c-.74-.69-1.5-1.33-2.27-1.95-5.4-4.29-11.61-7.08-17.92-7.08 0 0-3.42.28-3.66.33-7.86 1.45-11.61 7.68-11.61 15.04a27.574 27.574 0 0 0 4.26 14.16 11.951 11.951 0 0 1 -.64 13.38c-5.86 7.83.49 15.57 6.44 16.99.184.044.362.074.544.116a57.237 57.237 0 0 1 5.626-1.136c1.03-.18 2.02-.34 2.92-.53a40.8 40.8 0 0 0 8.96-3.34 58.841 58.841 0 0 1 13.129-4.7 11.11 11.11 0 0 1 7.682-10.335 14.449 14.449 0 0 1 -9.611-13.585zm-24.082 21c-7.8-6.184-4.054-16.241-1.79-20.739a5.567 5.567 0 0 1 4.368-3.035c4.99-.542 10.332 1.748 14.579 4.58a8.8 8.8 0 0 0 -1.935-.226 9.968 9.968 0 1 0 0 19.935 13.151 13.151 0 0 0 5.43-1.183c-7.345 5.768-16.619 3.862-20.652.668zm15.222-2.49a6.968 6.968 0 1 1 6.968-6.967 6.975 6.975 0 0 1 -6.968 6.967z" />
    <path d="m98.47 109.24a21.853 21.853 0 0 1 -12.988-6.582q-.171.16-.352.314c-3.18 2.664-10.249 2.634-18.426 2.6-1.8-.008-7.262.008-8.163.008-6.989 0-12.854-.244-15.671-2.6-.121-.1-.238-.208-.352-.315a21.853 21.853 0 0 1 -12.988 6.575c-.053.007-.1.009-.152.016.5 6.51 4.456 11.684 17.392 11.684a83.144 83.144 0 0 0 15.54-1.75 8.737 8.737 0 0 1 3.38 0c25.56 4.946 32.276-1.324 32.931-9.934-.052-.007-.099-.009-.151-.016z" />
    <path d="m86.7 99.629c3.067 3.166 6.462 5.853 12.181 6.631 7.15.99 12.55-.73 14.81-4.7a7.337 7.337 0 0 0 -.5-8.16c-2.69-3.38-7.71-4.22-12.14-4.96-1.07-.17-2.09-.35-3.04-.54a44.441 44.441 0 0 1 -9.6-3.55c-5.741-2.66-12.241-5.66-24.411-5.66s-18.67 3-24.41 5.66a44.441 44.441 0 0 1 -9.6 3.55c-.95.19-1.97.37-3.04.54-4.43.74-9.45 1.58-12.14 4.96a6.97 6.97 0 0 0 -1.5 4.39 7.629 7.629 0 0 0 1 3.77c2.26 3.97 7.65 5.69 14.81 4.7 5.72-.778 9.116-3.466 12.183-6.634.081-.117 4.747-5.156 6.217-6.476 3.73-3.4 8.45-6.09 16.48-6.09s12.75 2.69 16.48 6.09c1.47 1.32 6.138 6.36 6.22 6.479z" />
    <path d="m64 97.69c-6.41 0-12.29.64-15.35-1.48-1.03.99-3.7 3.911-4.047 4.291.064.059.129.117.2.172 2.337 1.959 9.526 1.928 16.485 1.9 1.8-.008 3.629-.008 5.434 0 6.949.03 14.148.063 16.485-1.9.066-.055.131-.113.2-.172-.351-.38-3.017-3.3-4.047-4.291-3.07 2.12-8.95 1.48-15.36 1.48z" />
</svg>